<?xml version="1.0" encoding="utf-8"?><svg version="1.1" id="Layer_1" xmlns="http://www.w3.org/2000/svg" xmlns:xlink="http://www.w3.org/1999/xlink" x="0px" y="0px" viewBox="0 0 122.88 115.71" style="enable-background:new 0 0 122.88 115.71" xml:space="preserve"><style type="text/css"><![CDATA[
	.st0{fill-rule:evenodd;clip-rule:evenodd;fill:#4AE351;}
	.st1{fill-rule:evenodd;clip-rule:evenodd;fill:#FB4049;}
	.st2{fill:#393939;}
]]></style><g><path class="st2" d="M80.33,52.45c0,1.29-1.05,2.34-2.34,2.34c-1.29,0-2.34-1.05-2.34-2.34V37.98c0-1.29,1.05-2.34,2.34-2.34 c1.29,0,2.34,1.05,2.34,2.34V52.45L80.33,52.45z"/><path class="st2" d="M80.33,113.36c0,1.29-1.05,2.34-2.34,2.34c-1.29,0-2.34-1.05-2.34-2.34V98.89c0-1.29,1.05-2.34,2.34-2.34 c1.29,0,2.34,1.05,2.34,2.34V113.36L80.33,113.36z"/><path class="st2" d="M70,49.23h15.77c1.13,0,2.16,0.47,2.92,1.23c0.79,0.79,1.28,1.89,1.28,3.1v43.26c0,1.21-0.49,2.31-1.28,3.1 c-0.76,0.76-1.79,1.23-2.92,1.23H70c-1.13,0-2.16-0.47-2.92-1.23c-0.79-0.79-1.28-1.89-1.28-3.1V53.56c0-1.21,0.49-2.31,1.28-3.1 C67.85,49.7,68.88,49.23,70,49.23L70,49.23z M83.75,55.71H72.03v38.95h11.72V55.71L83.75,55.71z"/><path class="st0" d="M70,52.47h15.77c0.6,0,1.09,0.49,1.09,1.09v43.26c0,0.6-0.49,1.09-1.09,1.09H70c-0.6,0-1.09-0.49-1.09-1.09 V53.56C68.92,52.96,69.41,52.47,70,52.47L70,52.47z"/><path class="st2" d="M113.02,43.35c0,1.29-1.05,2.34-2.34,2.34s-2.34-1.05-2.34-2.34V23.85c0-1.29,1.05-2.34,2.34-2.34 s2.34,1.05,2.34,2.34V43.35L113.02,43.35z"/><path class="st2" d="M113.02,103.03c0,1.29-1.05,2.34-2.34,2.34s-2.34-1.05-2.34-2.34V83.54c0-1.29,1.05-2.34,2.34-2.34 s2.34,1.05,2.34,2.34V103.03L113.02,103.03z"/><path class="st2" d="M102.91,40.1h15.77c1.13,0,2.16,0.47,2.92,1.23c0.79,0.79,1.28,1.89,1.28,3.1v36.38c0,1.21-0.49,2.31-1.28,3.1 c-0.76,0.76-1.79,1.23-2.92,1.23h-15.77c-1.13,0-2.16-0.47-2.92-1.23c-0.79-0.79-1.28-1.88-1.28-3.1V44.43 c0-1.21,0.49-2.31,1.28-3.1C100.75,40.58,101.78,40.1,102.91,40.1L102.91,40.1z M116.66,46.59h-11.72v32.08h11.72V46.59 L116.66,46.59z"/><path class="st1" d="M102.91,43.35h15.77c0.6,0,1.09,0.49,1.09,1.09v36.38c0,0.6-0.49,1.09-1.09,1.09h-15.77 c-0.6,0-1.09-0.49-1.09-1.09V44.43C101.82,43.83,102.31,43.35,102.91,43.35L102.91,43.35z"/><path class="st2" d="M47.33,19.69c0,1.29-1.05,2.34-2.34,2.34s-2.34-1.05-2.34-2.34V2.34c0-1.29,1.05-2.34,2.34-2.34 s2.34,1.05,2.34,2.34V19.69L47.33,19.69z"/><path class="st2" d="M47.33,90.41c0,1.29-1.05,2.34-2.34,2.34s-2.34-1.05-2.34-2.34V73.07c0-1.29,1.05-2.34,2.34-2.34 s2.34,1.05,2.34,2.34V90.41L47.33,90.41z"/><path class="st2" d="M37.1,16.45h15.77c1.13,0,2.16,0.47,2.92,1.23c0.79,0.79,1.28,1.89,1.28,3.1v50.17c0,1.21-0.49,2.31-1.28,3.1 c-0.76,0.76-1.79,1.23-2.92,1.23H37.1c-1.12,0-2.16-0.47-2.92-1.23c-0.79-0.79-1.28-1.88-1.28-3.1V20.78c0-1.21,0.49-2.31,1.28-3.1 C34.94,16.92,35.98,16.45,37.1,16.45L37.1,16.45z M50.85,22.93H39.13v45.86h11.72V22.93L50.85,22.93z"/><path class="st1" d="M37.1,19.69h15.77c0.6,0,1.09,0.49,1.09,1.09v50.17c0,0.6-0.49,1.09-1.09,1.09H37.1 c-0.6,0-1.09-0.49-1.09-1.09V20.78C36.01,20.18,36.5,19.69,37.1,19.69L37.1,19.69z"/><path class="st2" d="M14.43,97.2c0,1.29-1.05,2.34-2.34,2.34c-1.29,0-2.34-1.05-2.34-2.34V76.9c0-1.29,1.05-2.34,2.34-2.34 c1.29,0,2.34,1.05,2.34,2.34V97.2L14.43,97.2z"/><path class="st2" d="M14.43,28.22c0,1.29-1.05,2.34-2.34,2.34c-1.29,0-2.34-1.05-2.34-2.34V7.93c0-1.29,1.05-2.34,2.34-2.34 c1.29,0,2.34,1.05,2.34,2.34V28.22L14.43,28.22z"/><path class="st2" d="M4.2,25.57h15.77c1.13,0,2.16,0.47,2.92,1.23c0.79,0.79,1.28,1.89,1.28,3.1v45.92c0,1.21-0.49,2.31-1.28,3.1 c-0.76,0.76-1.79,1.23-2.92,1.23H4.2c-1.13,0-2.16-0.47-2.92-1.23C0.49,78.13,0,77.03,0,75.82V29.9c0-1.21,0.49-2.31,1.28-3.1 C2.04,26.04,3.07,25.57,4.2,25.57L4.2,25.57z M17.95,32.05H6.22v41.61h11.72V32.05L17.95,32.05z"/><path class="st0" d="M4.2,28.81h15.77c0.6,0,1.09,0.49,1.09,1.09v45.92c0,0.6-0.49,1.09-1.09,1.09H4.2c-0.6,0-1.09-0.49-1.09-1.09 V29.9C3.11,29.3,3.6,28.81,4.2,28.81L4.2,28.81z"/></g></svg>