<svg xmlns="http://www.w3.org/2000/svg" width="1024" height="1024" viewBox="0 0 1024 1024" version="1.1"><path d="M 957.585 65.696 C 952.222 66.558, 787.642 133.069, 699 170.196 C 642.837 193.720, 625.451 201.042, 599.217 212.218 C 583.661 218.845, 570.701 224.035, 570.418 223.751 C 570.134 223.467, 571.319 213.395, 573.050 201.368 C 577.247 172.217, 577.319 167.169, 573.649 159.693 C 568.374 148.952, 555.940 141.987, 544.613 143.430 C 537.787 144.299, 531.151 147.775, 521.500 155.537 C 517.100 159.075, 512.995 161.977, 512.378 161.985 C 511.761 161.993, 510.953 160.107, 510.583 157.792 C 509.119 148.638, 503.112 140.279, 495.150 136.316 C 490.078 133.792, 474.970 133.760, 470 136.262 C 458.448 142.079, 154.787 367.026, 119.285 396.066 C 102.687 409.643, 91.315 429.109, 86.439 452.291 C 83.564 465.958, 79.833 528.340, 81.163 540.500 C 83.480 561.679, 94.063 578.364, 113.158 590.944 C 122.443 597.060, 130.537 600.717, 186.500 624.078 C 209.176 633.544, 221.607 639.237, 221.804 640.246 C 222.134 641.932, 216.949 645.506, 188.221 663.391 C 162.747 679.251, 157.062 684.246, 140.951 704.931 C 137.189 709.761, 116.881 738.650, 84.334 785.470 C 72.875 801.954, 58.755 821.979, 52.955 829.970 C 33.342 856.994, 31.927 859.981, 10.052 920.576 C -0.051 948.564, -0.748 952.475, 3.646 956.548 C 8.127 960.701, 10.689 960.421, 32.911 953.358 C 85.790 936.550, 107.484 927.415, 175.500 893.318 C 207.950 877.051, 234.950 863.407, 235.500 862.999 C 238.363 860.873, 291.212 834.878, 291.692 835.359 C 292.003 835.670, 290.962 838.972, 289.379 842.697 C 286.883 848.568, 286.500 850.738, 286.500 858.985 C 286.500 867.032, 286.874 869.259, 288.923 873.423 C 292.279 880.243, 298.011 885.635, 305.849 889.349 C 311.632 892.089, 313.544 892.494, 320.500 892.453 C 326.170 892.420, 330.370 891.744, 334.922 890.134 C 338.454 888.885, 382.104 872.857, 431.922 854.518 C 514.388 824.159, 586.236 797.792, 625.500 783.478 C 658.453 771.464, 750.579 737.457, 767.647 731.005 C 788.578 723.093, 792.228 721.366, 800.695 715.367 C 807.717 710.391, 811.622 705.758, 835.980 673.500 C 845.533 660.850, 857.239 645.531, 861.995 639.457 C 866.751 633.384, 879.160 617.268, 889.571 603.644 C 899.982 590.020, 912.032 574.289, 916.348 568.686 C 926.663 555.297, 930.005 548.386, 929.977 540.500 C 929.952 533.261, 927.388 527.040, 922.259 521.767 L 918.628 518.035 920.726 513.767 C 925.242 504.585, 925.993 497.706, 923.425 489.059 C 921.382 482.180, 914.442 475.020, 907.537 472.667 C 898.895 469.723, 895.040 470.368, 870.355 478.891 C 848.684 486.374, 835.803 491.108, 747.282 524.120 C 726.812 531.754, 709.547 538, 708.915 538 C 708.283 538, 707.975 537.205, 708.229 536.233 C 708.483 535.261, 722.535 513.774, 739.456 488.483 C 785.309 419.951, 834.715 344.808, 890.341 259 C 902.999 239.475, 929.105 199.200, 948.355 169.500 C 967.605 139.800, 984.963 112.575, 986.928 109 C 990.239 102.975, 990.499 101.879, 990.488 94 C 990.478 87.219, 990.041 84.691, 988.323 81.500 C 982.490 70.664, 969.196 63.829, 957.585 65.696 M 902 117.562 C 851.365 138.021, 828.468 147.342, 799 159.490 C 747.090 180.891, 733.806 186.383, 715.500 194.014 C 677.399 209.896, 611.839 237.659, 591.500 246.524 C 580.500 251.319, 564.300 258.274, 555.500 261.980 C 524.683 274.960, 498.456 286.269, 493.500 288.714 C 485.694 292.565, 455 313.303, 455 314.726 C 455 315.427, 455.465 316, 456.033 316 C 457.139 316, 470.986 310.206, 501.500 296.975 C 511.950 292.444, 537.600 281.435, 558.500 272.511 C 579.400 263.587, 612.025 249.651, 631 241.543 C 675.921 222.347, 740.045 195.497, 787 176.221 C 836.668 155.832, 853.797 148.843, 885 136.240 C 931.809 117.333, 933.149 116.815, 933.742 117.409 C 934.033 117.700, 928.654 126.615, 921.788 137.219 C 854.218 241.580, 834.447 272.064, 807.132 314 C 746.533 407.037, 682.037 503.053, 611.833 604.743 C 606.425 612.576, 602 619.438, 602 619.993 C 602 621.531, 604.402 621.209, 610.213 618.892 C 615.989 616.588, 654.413 601.955, 722 576.320 C 758.106 562.625, 793.566 549.286, 853 527.040 C 857.125 525.496, 860.812 524.417, 861.193 524.641 C 861.574 524.865, 855.781 533.025, 848.319 542.774 C 834.642 560.643, 832.135 564.468, 833.326 565.659 C 834.326 566.660, 847.107 560.901, 849.067 558.567 C 850.022 557.430, 856.109 549.750, 862.593 541.500 C 869.078 533.250, 878.347 521.488, 883.192 515.363 C 891.456 504.915, 893.192 502, 891.150 502 C 888.626 502, 787.398 539.587, 694.500 575.018 C 639.471 596.006, 630.930 599.148, 629.910 598.785 C 629.035 598.473, 632.299 593.604, 676.500 529.273 C 708.437 482.791, 787.006 364.923, 826.126 304.807 C 864.565 245.734, 877.939 225.112, 885.016 214 C 888.694 208.225, 901.509 188.425, 913.495 170 C 960.491 97.757, 962.230 94.878, 958.750 95.068 C 958.063 95.106, 932.525 105.228, 902 117.562 M 450.500 184.686 C 355.357 254.329, 260.365 324.953, 173 390.997 C 136.860 418.318, 134.108 420.626, 127.935 428.780 C 121.634 437.103, 118.474 443.843, 116.015 454.205 C 113.729 463.839, 111.200 493.292, 110.321 520.500 C 109.602 542.772, 110.528 547.692, 116.965 555.836 C 123.952 564.675, 134.157 570.966, 157 580.516 C 163.875 583.390, 184.575 592.056, 203 599.774 C 221.425 607.492, 247.525 618.406, 261 624.028 C 274.475 629.650, 285.847 634.563, 286.271 634.946 C 286.696 635.329, 274.996 643.079, 260.271 652.168 C 198.190 690.491, 182.630 700.561, 177.096 706 C 171.403 711.596, 127.412 767.080, 77.990 831 C 55.588 859.974, 57.497 856.671, 30.356 913.435 C 23.010 928.799, 17 941.737, 17 942.185 C 17 944.965, 25.154 940.927, 133.500 884.497 C 165.400 867.883, 205.225 847.185, 222 838.503 C 259.981 818.844, 310.365 792.551, 340.292 776.770 C 352.828 770.160, 363.267 764.934, 363.490 765.157 C 363.713 765.379, 360.849 770.723, 357.126 777.031 C 349.452 790.032, 330.312 825.432, 321.056 843.745 C 314.186 857.335, 313.729 860.448, 318.235 862.965 C 320.761 864.377, 321.485 864.311, 327.735 862.111 C 334.087 859.874, 436.077 822.482, 459 813.986 C 502.836 797.739, 514.965 793.269, 525.500 789.484 C 532.100 787.112, 547.850 781.366, 560.500 776.714 C 573.150 772.063, 601.500 761.656, 623.500 753.588 C 645.500 745.520, 667.550 737.389, 672.500 735.521 C 677.450 733.652, 698.756 725.774, 719.847 718.015 C 769.593 699.713, 777.640 696.467, 782.695 692.659 C 785.241 690.742, 799.204 673.376, 818.200 648.500 C 835.420 625.950, 855.615 599.625, 863.078 590 C 883.046 564.246, 891 553.467, 891 552.162 C 891 550.315, 889.189 550.764, 881.605 554.495 C 875.507 557.495, 873.651 559.090, 868.510 565.745 C 865.216 570.010, 857.608 579.800, 851.604 587.500 C 845.599 595.200, 828.522 617.475, 813.655 637 C 798.788 656.525, 784.596 674.901, 782.118 677.835 C 776.774 684.162, 769.592 688.076, 750.500 695.065 C 743.350 697.683, 725.350 704.309, 710.500 709.791 C 695.650 715.273, 650.200 731.999, 609.500 746.960 C 489.865 790.938, 459.674 802.041, 419 817.018 C 347.678 843.281, 331.696 849.029, 331.245 848.579 C 330.145 847.479, 374.779 766.735, 388.515 744.976 C 391.389 740.423, 391.614 739, 389.458 739 C 388.609 739, 372.297 747.252, 353.208 757.339 C 308.929 780.734, 278.027 796.849, 81.667 898.937 C 59.208 910.613, 40.573 919.907, 40.256 919.590 C 39.384 918.717, 63.838 868.623, 69.076 860.551 C 73.420 853.856, 102.928 815.577, 133.901 776.455 C 141.720 766.580, 154.449 750.466, 162.189 740.646 C 184.039 712.927, 184.767 712.256, 210.774 695.906 C 246.144 673.670, 277.029 654.558, 294.250 644.250 C 302.913 639.065, 310 634.248, 310 633.546 C 310 632.825, 300.758 628.467, 288.750 623.528 C 222.665 596.342, 151.729 566.383, 142.674 561.833 C 133.178 557.062, 126.679 551.272, 123.265 544.540 C 120.738 539.557, 120.716 539.315, 121.354 523.093 C 122.352 497.740, 124.888 466.260, 126.570 458.354 C 128.684 448.419, 134.694 436.467, 140.615 430.428 C 147.466 423.439, 268.702 331.606, 351.002 271.066 C 444.420 202.347, 453.868 195.535, 454.656 196.323 C 455.785 197.452, 439.119 238.605, 430.119 256.911 C 422.781 271.837, 423.270 274.032, 432.409 267.187 C 435.209 265.089, 449.425 255.472, 464 245.815 C 478.575 236.158, 499.938 221.034, 511.472 212.207 C 523.007 203.379, 532.720 196.327, 533.055 196.534 C 533.834 197.016, 528.437 230.867, 526.523 237.500 C 525.730 240.250, 523.488 245.142, 521.541 248.371 C 517.824 254.534, 517.165 257.013, 519.250 256.980 C 521.518 256.945, 533.257 249.549, 535.091 247 C 536.298 245.323, 538.049 237.583, 540.407 223.500 C 543.298 206.236, 548 175.245, 548 173.452 C 548 171.284, 541.080 176.003, 516.677 194.812 C 489.512 215.748, 452.815 241.480, 451.065 240.817 C 449.969 240.402, 459.311 216.170, 471.375 188.132 C 476.669 175.829, 481 165.367, 481 164.882 C 481 164.397, 480.438 164.043, 479.750 164.095 C 479.063 164.147, 465.900 173.413, 450.500 184.686 M 851 175.938 C 850.175 176.421, 829.475 184.998, 805 194.998 C 780.525 204.998, 748.350 218.145, 733.500 224.214 C 718.650 230.282, 693.450 240.639, 677.500 247.229 C 661.550 253.820, 633.425 265.420, 615 273.009 C 596.575 280.597, 556.458 297.168, 525.851 309.832 C 467.751 333.871, 458.343 337.375, 454.486 336.407 C 452.945 336.020, 441.719 339.442, 421.328 346.513 C 355.830 369.225, 325 379.327, 325 378.076 C 325 376.848, 341.889 365.144, 464.264 281.567 C 483.909 268.150, 497.278 257.129, 497.820 253.904 C 497.995 252.857, 497.764 252, 497.306 252 C 496.848 252, 487.705 256.417, 476.987 261.816 C 466.269 267.215, 449.175 275.171, 439 279.496 C 397.930 296.952, 378.626 305, 377.827 305 C 376.926 305, 383.845 293.446, 395.674 275.200 C 399.703 268.985, 403 263.420, 403 262.833 C 403 259.696, 403.607 259.255, 273.500 356.847 C 152.928 447.287, 156 444.911, 156 447.696 C 156 449.561, 158.339 449.305, 161.115 447.138 C 165.832 443.456, 174.782 439.066, 191 432.479 C 214.917 422.765, 268.223 402.908, 269.363 403.288 C 270.643 403.714, 198.267 451.885, 190.500 455.777 C 187.200 457.430, 180.225 462.061, 175 466.068 C 169.775 470.075, 162.052 475.996, 157.837 479.227 C 153.623 482.459, 149.928 485.745, 149.626 486.531 C 148.653 489.068, 146.842 513.316, 147.176 519.344 L 147.500 525.188 153.500 527.701 C 162.476 531.460, 310.432 596.587, 346.980 612.867 C 359.344 618.374, 369.596 623.288, 369.763 623.788 C 369.929 624.288, 363.413 628.667, 355.283 633.521 C 339.388 643.009, 305.466 663.736, 282 678.298 C 222.475 715.238, 201.186 728.557, 199.138 730.139 C 196.768 731.970, 111.312 839.367, 110.295 841.793 C 109.110 844.619, 111.478 844.333, 117.836 840.883 C 125.613 836.662, 157.971 819.347, 190 802.266 C 254.621 767.805, 297.081 745.301, 350 717.467 C 382.175 700.543, 409.327 686.202, 410.337 685.598 C 411.348 684.994, 414.688 680.225, 417.761 675 C 420.834 669.775, 433.319 648.625, 445.507 628 C 473.513 580.607, 474.751 578.357, 473.500 577.117 C 472.950 576.572, 463.500 572.329, 452.500 567.688 C 441.500 563.047, 422.375 554.979, 410 549.758 C 354.903 526.515, 330.543 516.408, 273.547 493.143 C 254.873 485.520, 239.443 478.829, 239.258 478.274 C 239.073 477.718, 242.651 475.340, 247.211 472.989 C 251.770 470.638, 262.475 465.009, 271 460.479 C 279.525 455.950, 302.925 443.813, 323 433.508 C 343.075 423.204, 374.146 407.174, 392.047 397.887 C 409.948 388.599, 425.153 381, 425.836 381 C 426.519 381, 416.711 393.383, 404.039 408.518 C 391.368 423.653, 381 436.478, 381 437.018 C 381 438.873, 384.056 437.992, 392.770 433.624 C 414.060 422.951, 491.824 386.851, 511.500 378.507 C 517.822 375.826, 590.448 346.126, 624 332.501 C 640.775 325.689, 668.219 314.504, 684.987 307.645 C 701.756 300.787, 715.797 295.374, 716.190 295.617 C 717.003 296.120, 713.932 300.570, 683.501 343 C 671.469 359.775, 657.600 379.125, 652.681 386 C 642.220 400.620, 525.504 575.553, 476.872 649.500 C 382.092 793.618, 387 786.044, 387 788.197 C 387 790.534, 387.471 790.490, 395.631 787.394 C 399.409 785.960, 429.950 774.536, 463.500 762.006 C 569.787 722.311, 752.096 653.036, 757.144 650.425 C 758.691 649.625, 761.706 646.615, 763.843 643.735 C 770.168 635.213, 809 571.546, 809 569.698 C 809 567.398, 808.534 567.477, 797.836 571.586 C 774.847 580.417, 645.447 628.917, 617 639.364 C 540.716 667.380, 531.484 670.672, 531.200 669.957 C 531.035 669.541, 536.847 660.493, 544.115 649.850 C 551.383 639.208, 564.402 620.150, 573.046 607.500 C 640.409 508.917, 729.200 374.696, 791.683 277 C 855.845 176.676, 855 178.023, 855 176.066 C 855 174.788, 853.071 174.727, 851 175.938 M 629.611 365.645 C 626.299 367.439, 603.311 377.402, 525 410.986 C 477.822 431.217, 434.794 449.732, 351.250 485.748 C 342.863 489.363, 336 492.869, 336 493.538 C 336 495.043, 344.967 499, 348.378 499 C 349.757 499, 352.374 498.127, 354.193 497.060 C 360.919 493.114, 606.150 387.975, 607.165 388.602 C 607.907 389.061, 605.069 393.523, 570.335 446.500 C 524.857 515.864, 496.229 559.729, 494.484 562.719 C 493.451 564.490, 492.933 566.266, 493.333 566.666 C 494.563 567.896, 505.060 563.759, 507.575 561.053 C 508.880 559.649, 516.416 548.600, 524.321 536.500 C 532.226 524.400, 553.993 491.100, 572.694 462.500 C 627.436 378.777, 635 366.997, 635 365.458 C 635 363.603, 633.270 363.663, 629.611 365.645" stroke="none" fill="#000000" fill-rule="evenodd"/><path d="M 908 115.077 C 857.706 135.442, 820.615 150.548, 802.500 158.044 C 797.550 160.092, 780.675 167.052, 765 173.511 C 707.807 197.075, 625.939 231.522, 591.500 246.513 C 580.500 251.301, 568.350 256.559, 564.500 258.197 C 560.650 259.835, 543.208 267.255, 525.739 274.684 C 508.270 282.114, 490.162 290.511, 485.497 293.346 C 471.672 301.748, 449.467 317.322, 450.720 317.740 C 451.893 318.131, 466.769 312.049, 501.500 296.980 C 511.950 292.446, 537.600 281.435, 558.500 272.511 C 579.400 263.587, 612.025 249.651, 631 241.543 C 675.921 222.347, 740.045 195.497, 787 176.221 C 838.458 155.097, 853.716 148.877, 882 137.496 C 898.775 130.746, 916.412 123.598, 921.193 121.611 C 930.149 117.891, 933 117.262, 933 119.006 C 933 119.559, 924.155 133.622, 913.345 150.256 C 902.535 166.890, 881.324 199.625, 866.209 223 C 785.561 347.720, 721.926 443.941, 666.814 524.500 C 650.635 548.150, 630.936 576.950, 623.040 588.500 C 615.144 600.050, 606.872 612.080, 604.657 615.232 C 602.443 618.385, 600.920 621.253, 601.273 621.606 C 601.625 621.959, 604.971 621.015, 608.707 619.509 C 615.662 616.706, 645.303 605.408, 722 576.324 C 815.884 540.724, 857.987 525, 859.430 525 C 861.339 525, 858.400 529.547, 845.536 546.500 C 834.103 561.568, 831.500 565.563, 832.958 565.806 C 835.600 566.246, 848.055 560.367, 849.820 557.846 C 851.329 555.692, 866.611 536.259, 883.684 514.781 C 888.808 508.336, 893 502.824, 893 502.531 C 893 502.239, 892.393 502, 891.650 502 C 888.634 502, 794.554 536.848, 694.500 575.026 C 637.304 596.850, 632.311 598.644, 631.375 597.709 C 630.388 596.722, 632.512 593.079, 641.991 579.500 C 682.159 521.956, 774.119 384.780, 826.127 304.824 C 861.552 250.362, 875.455 228.920, 885.018 214 C 889.777 206.575, 902.594 186.775, 913.499 170 C 941.158 127.456, 962 94.991, 962 94.454 C 962 93.336, 956.567 95.411, 908 115.077 M 448 186.651 C 354.373 254.752, 156.095 402.673, 138.179 417.787 C 131.802 423.167, 123.954 433.291, 120.497 440.597 C 114.888 452.455, 111.713 477.379, 110.321 520.500 C 109.602 542.772, 110.528 547.692, 116.965 555.836 C 124.223 565.018, 133.740 570.758, 159.903 581.730 C 188.368 593.667, 239.180 614.940, 262.749 624.787 C 275.536 630.129, 285.983 634.950, 285.964 635.500 C 285.946 636.050, 274.358 643.599, 260.215 652.275 C 205.083 686.097, 182.488 700.712, 177 706.100 C 171.394 711.604, 127.198 767.356, 77.990 831 C 55.586 859.976, 57.500 856.665, 30.337 913.477 C 22.979 928.864, 17.194 942.063, 17.480 942.807 C 18.056 944.311, 35.616 935.486, 133.500 884.500 C 165.400 867.884, 205.225 847.185, 222 838.503 C 263.356 817.098, 315.333 789.966, 339.097 777.379 C 357.575 767.593, 362 765.762, 362 767.907 C 362 768.406, 359.379 773.243, 356.175 778.657 C 349.373 790.149, 329.961 826.128, 321.056 843.745 C 314.186 857.335, 313.729 860.448, 318.235 862.965 C 320.761 864.377, 321.485 864.311, 327.735 862.111 C 334.087 859.874, 436.077 822.482, 459 813.986 C 502.836 797.739, 514.965 793.269, 525.500 789.484 C 532.100 787.112, 547.850 781.366, 560.500 776.714 C 573.150 772.063, 601.500 761.656, 623.500 753.588 C 645.500 745.520, 667.550 737.389, 672.500 735.521 C 677.450 733.652, 698.756 725.774, 719.847 718.015 C 769.599 699.711, 777.641 696.466, 782.692 692.659 C 785.247 690.734, 799.858 672.509, 820.099 646 C 838.368 622.075, 855.641 599.575, 858.485 596 C 873.230 577.464, 893.049 550.516, 892.155 550.218 C 891.594 550.031, 887.392 551.701, 882.818 553.929 C 875.322 557.579, 873.908 558.746, 868.510 565.739 C 865.216 570.008, 857.608 579.800, 851.604 587.500 C 845.599 595.200, 828.522 617.475, 813.655 637 C 798.788 656.525, 784.596 674.901, 782.118 677.835 C 776.774 684.162, 769.592 688.076, 750.500 695.065 C 743.350 697.683, 725.350 704.309, 710.500 709.791 C 695.650 715.273, 650.200 731.999, 609.500 746.960 C 419.793 816.696, 363.253 837.484, 348.113 843.065 C 334.158 848.209, 332 848.724, 332 846.908 C 332 844.538, 357.714 797.505, 377.328 764 C 383.929 752.725, 390.034 742.292, 390.896 740.815 C 391.757 739.338, 392.201 737.868, 391.882 737.549 C 391.563 737.229, 387.746 738.926, 383.401 741.320 C 379.055 743.714, 357.050 755.364, 334.500 767.210 C 298.653 786.042, 253.025 809.815, 81.797 898.870 C 60.510 909.942, 42.623 919, 42.047 919 C 41.471 919, 41 918.358, 41 917.574 C 41 916.790, 47.029 903.852, 54.397 888.824 C 69.373 858.280, 67.138 861.579, 109.489 807.500 C 158.072 745.461, 179.712 718.536, 185.150 713.360 C 190.091 708.657, 238.883 677.720, 292.911 645.034 C 302.487 639.240, 310.362 634.061, 310.411 633.525 C 310.460 632.989, 301.500 628.824, 290.500 624.269 C 279.500 619.715, 263.300 613.013, 254.500 609.376 C 209.508 590.782, 149.588 565.307, 142.674 561.833 C 133.178 557.062, 126.679 551.272, 123.265 544.540 C 120.738 539.557, 120.716 539.315, 121.354 523.093 C 122.352 497.740, 124.888 466.260, 126.570 458.354 C 128.684 448.419, 134.694 436.467, 140.615 430.428 C 147.466 423.439, 268.702 331.606, 351.002 271.066 C 382.101 248.190, 437.773 207.380, 446.119 201.342 C 450.640 198.071, 454 197.053, 454 198.953 C 454 202.091, 438.165 240.436, 429.616 258 C 422.279 273.074, 422.295 274.388, 429.750 269.012 C 432.913 266.732, 447.875 256.631, 463 246.566 C 478.125 236.502, 499.387 221.457, 510.249 213.133 C 521.111 204.810, 530.674 198, 531.499 198 C 533.507 198, 533.456 198.737, 530.017 219.412 C 526.785 238.840, 524.448 245.408, 517.585 254.348 C 515.538 257.015, 514.032 259.366, 514.239 259.572 C 514.638 259.971, 520.748 256.852, 528.563 252.260 C 531.169 250.729, 534.109 248.357, 535.096 246.988 C 536.893 244.496, 541.458 219.802, 545.962 188.202 C 548.393 171.147, 548.375 171.642, 546.536 172.348 C 545.731 172.657, 532.537 182.582, 517.216 194.404 C 490.167 215.276, 454.973 240, 452.312 240 C 451.591 240, 451 239.658, 451 239.240 C 451 237.540, 462.437 208.915, 471.511 187.901 C 476.832 175.580, 481.417 164.938, 481.700 164.250 C 481.982 163.563, 481.828 163.003, 481.357 163.006 C 480.886 163.009, 465.875 173.649, 448 186.651 M 852 175.660 C 848.742 177.064, 796.604 198.427, 733.500 224.214 C 718.650 230.282, 693.450 240.639, 677.500 247.229 C 661.550 253.820, 633.425 265.420, 615 273.009 C 596.575 280.597, 556.458 297.168, 525.851 309.832 C 467.751 333.871, 458.343 337.375, 454.486 336.407 C 452.945 336.020, 441.720 339.442, 421.328 346.513 C 378.712 361.291, 331.793 377, 330.269 377 C 327.334 377, 329.407 374.098, 335.250 370.028 C 351.838 358.473, 397.559 327.124, 464.264 281.567 C 482.464 269.137, 493.164 260.491, 499.930 252.750 C 501.732 250.687, 502.703 249, 502.086 249 C 501.470 249, 496.912 251.285, 491.958 254.078 C 474.290 264.037, 448.107 275.944, 396.214 297.616 C 387.807 301.127, 380.494 304, 379.964 304 C 377.407 304, 379.804 299.676, 397.308 272.712 C 402.230 265.129, 406.083 258.750, 405.870 258.536 C 405.426 258.093, 390.624 269.085, 279.500 352.380 C 170.053 434.419, 159.664 442.374, 156.103 446.869 C 153.231 450.496, 152.197 453, 153.571 453 C 153.884 453, 156.247 451.249, 158.821 449.108 C 165.594 443.475, 172.211 440.103, 193 431.694 C 213.512 423.397, 262.447 405, 264.005 405 C 264.552 405, 264.972 405.563, 264.937 406.250 C 264.863 407.734, 200.621 450.505, 190.460 455.835 C 186.588 457.867, 179.388 462.644, 174.460 466.452 C 169.532 470.260, 162.052 476.014, 157.837 479.239 C 153.623 482.464, 149.928 485.745, 149.626 486.531 C 149.325 487.318, 148.603 493.932, 148.022 501.230 C 147.442 508.529, 146.806 516.403, 146.609 518.730 C 146.165 523.961, 147.073 525.095, 154 527.957 C 160.963 530.834, 219.531 556.586, 348.728 613.577 C 362.103 619.477, 368.954 623.008, 368.950 624 C 368.947 624.865, 362.925 629.064, 354.722 633.922 C 332.495 647.086, 283.146 677.476, 215.500 719.660 C 207.250 724.805, 199.541 729.798, 198.368 730.757 C 195.496 733.106, 109 842.692, 109 843.982 C 109 844.542, 109.279 845, 109.620 845 C 110.169 845, 126.232 836.471, 168 814.001 C 202.999 795.173, 290.147 748.948, 350 717.467 C 382.175 700.543, 409.327 686.202, 410.337 685.598 C 411.348 684.994, 414.688 680.225, 417.761 675 C 420.834 669.775, 433.319 648.625, 445.507 628 C 473.513 580.607, 474.751 578.357, 473.500 577.117 C 472.950 576.572, 463.500 572.329, 452.500 567.688 C 441.500 563.047, 422.375 554.978, 410 549.755 C 356.698 527.262, 324.195 513.784, 271.755 492.428 C 254.295 485.318, 240.008 478.948, 240.005 478.273 C 240.002 477.598, 241.012 476.428, 242.250 475.672 C 245.747 473.536, 286.937 452.045, 325 432.499 C 343.975 422.754, 373.260 407.631, 390.078 398.891 C 406.897 390.151, 421.184 383, 421.828 383 C 422.473 383, 423 383.645, 423 384.432 C 423 385.220, 413.662 397.048, 402.250 410.716 C 376.901 441.076, 378.604 438.937, 379.252 439.585 C 379.547 439.881, 384.674 437.676, 390.645 434.686 C 405.256 427.368, 479.389 392.576, 495 385.711 C 516.719 376.159, 523.105 373.525, 624 332.505 C 641.875 325.237, 669.454 313.992, 685.287 307.516 C 701.120 301.040, 714.356 296.022, 714.700 296.366 C 716.075 297.741, 717.741 295.308, 667.022 366 C 645.019 396.668, 549.796 538.624, 477.859 648 C 375.373 803.822, 384.228 790, 386.892 790 C 387.920 790, 391.853 788.827, 395.631 787.394 C 399.409 785.960, 429.950 774.536, 463.500 762.006 C 568.869 722.653, 752.086 653.041, 757.058 650.470 C 758.557 649.695, 761.131 647.359, 762.778 645.280 C 767.129 639.785, 810 569.984, 810 568.394 C 810 567.403, 807.964 567.813, 802.250 569.955 C 797.987 571.552, 763.225 584.635, 725 599.029 C 661.269 623.026, 620.698 638.077, 556.674 661.474 C 543.570 666.263, 532.557 669.890, 532.201 669.534 C 531.312 668.646, 531.694 668.051, 556 632.437 C 644.011 503.479, 723.683 383.323, 791.683 277 C 807.777 251.835, 852.290 182.019, 854.683 178.189 C 856.811 174.782, 855.941 173.962, 852 175.660 M 629.611 365.645 C 626.303 367.437, 603.417 377.356, 525 410.987 C 469.393 434.835, 383.946 471.602, 353 484.996 C 343.925 488.924, 336.111 492.518, 335.635 492.984 C 334.697 493.902, 338.863 496.335, 345.206 498.573 C 348.942 499.891, 349.438 499.829, 353.342 497.551 C 355.629 496.217, 376.400 486.968, 399.500 476.997 C 480.834 441.890, 602.520 389.746, 604.250 389.259 C 605.387 388.939, 606 389.321, 606 390.351 C 606 391.976, 603.118 396.513, 570.339 446.500 C 532.186 504.681, 496.337 559.594, 494.017 563.410 L 491.639 567.320 495.132 566.753 C 497.053 566.442, 500.625 565.246, 503.070 564.097 C 508.038 561.762, 503.931 567.717, 565.200 474 C 612.994 400.895, 635.183 366.687, 635.722 365.282 C 636.397 363.524, 633.174 363.715, 629.611 365.645" stroke="none" fill="#ffffff" fill-rule="evenodd"/></svg>