<?xml version="1.0" ?>
<!-- Uploaded to: SVG Repo, www.svgrepo.com, Generator: SVG Repo Mixer Tools -->
<svg width="800px" height="800px" viewBox="0 0 256 256" data-name="Layer 1" id="Layer_1" xmlns="http://www.w3.org/2000/svg">
<defs>
<style>.cls-1{fill:#84d0f7;}.cls-2{fill:#aa392d;}.cls-3{fill:#7c211a;}.cls-4{fill:#eab198;}.cls-5{fill:#2d2d2d;}.cls-6{opacity:0.2;}.cls-7{opacity:0.3;}</style>
</defs>
<g data-name="Male 3" id="Male_3">
<path class="cls-1" d="M250.43,128a121.66,121.66,0,0,1-37.86,88.34H44.85a102.15,102.15,0,0,1-9-8.94l-.83-1C28,198.08,5.26,168.49,6.44,128,8.07,71.91,55.22,6,128.44,6A122,122,0,0,1,250.43,128Z" id="Wallpaper"/>
<path class="cls-2" d="M221.87,206.47a129.62,129.62,0,0,1-9.3,9.88A121.64,121.64,0,0,1,128.44,250c-39.67,0-69.4-21.07-83.58-33.65a108,108,0,0,1-9.06-8.95c-.22-.29-.51-.6-.82-1C48.61,192.7,66.92,182.05,88,176c5.91,14.7,21.76,25.22,40.4,25.22,17.32,0,32.22-9.08,39-22.13.53-1,1-2,1.42-3.09l1.15.33C190.59,182.45,208.51,193,221.87,206.47Z" id="Sweater"/>
<path class="cls-3" d="M168.82,176c-.42,1-.89,2.06-1.42,3.09-6.77,13.05-21.67,22.13-39,22.13-18.64,0-34.49-10.52-40.4-25.22.45-.13.89-.24,1.33-.38a4.81,4.81,0,0,0,.65-.18l.69-.17a1.42,1.42,0,0,1,.22-.07s1.75-.47,3.42-.84a37.9,37.9,0,0,0,68.19,0A28.44,28.44,0,0,1,168.82,176Z" id="Neckband"/>
<path class="cls-4" d="M162.51,174.37A38.09,38.09,0,0,1,145,191.9a37.9,37.9,0,0,1-50.68-17.53c1.35-.34,2.7-.65,4.08-.91.33-.07.67-.14,1-.23l.51-.08.87-.18,1.2-.2c.29-.07.6-.11.91-.18H103c.33-.86.68-1.8,1-2.82.12-.33.23-.71.34-1.06a33.22,33.22,0,0,0,.86-4.07,41.84,41.84,0,0,0,6.93,4.6,5.45,5.45,0,0,1,.53.29c.2.09.42.2.62.31l.76.35.44.2c.11.07.25.11.38.18s.31.13.44.2.32.11.45.18h0a1.76,1.76,0,0,1,.2.09l.53.2c.2.09.43.17.67.26h0l.74.27.15,0c.16.07.33.11.51.18s.51.16.76.22.24.07.37.09l.69.2a38.73,38.73,0,0,0,4.55.8c.16,0,.31,0,.47,0l.33,0,.62,0,.56,0a4.29,4.29,0,0,1,.62,0h.56a30.69,30.69,0,0,0,9.74-1.62.07.07,0,0,0,.07,0,1.57,1.57,0,0,0,.35-.11c.8-.26,1.49-.55,2.13-.8l.85-.35a1.65,1.65,0,0,1,.22-.09,38.51,38.51,0,0,0,9.88-6.13c.31,1.38.69,2.84,1.15,4.38.42,1.37.87,2.66,1.31,3.88.38.07.74.11,1.11.2s.74.13,1.09.2l1.09.2c.26,0,.53.11.8.16s.35.06.53.11C159.83,173.75,161.18,174,162.51,174.37Z" id="Neck"/>
<path class="cls-5" d="M197.68,81.66a7.51,7.51,0,0,1-.36,2.42c-1.6,5.64-7.1,6.22-8.12,11.15-.2.91.08.44,0,3.24-.07,2-.23,6.59-1.54,9.59a10.57,10.57,0,0,1-3.28,4,6.64,6.64,0,0,0-4.15-2.95,6,6,0,0,0-2.38,0,66.89,66.89,0,0,0-.93-14.77,66,66,0,0,0-2.58-9.85c-.46-1.4-1-2.8-1.55-4.18a74.58,74.58,0,0,0-8.63-15.49c-8.64-11.79-21-20.56-35.9-20.51a39.75,39.75,0,0,0-24.46,8.88c-7.64,6-13.77,14.32-18,23.22A72,72,0,0,0,79.91,94.4a67,67,0,0,0-1,14.77,5.47,5.47,0,0,0-2.35,0,7,7,0,0,0-4.62,3.7,10.12,10.12,0,0,1-3.33-3.7c-2.29-4.82,1.11-7.51-1.27-12.48-2.11-4.42-6.1-4.84-7.23-10a12.36,12.36,0,0,1-.18-3.79c.53-4.73,3.4-5,4.35-8.77,1.33-5.31-3.51-8.39-1.35-14.92a5.8,5.8,0,0,1,.55-1.38c2.75-4.79,10.3-1.24,14.08-5.12,3.48-3.58-.25-9.37,4.72-14.26a7.79,7.79,0,0,1,2.11-1.59c5.6-2.71,10.9,4.92,15.85,3,4-1.54,2.56-7.09,8.19-10.33a12.24,12.24,0,0,1,6.64-1.64c6.4.35,8,6.1,12.12,5.55,4-.56,3.8-6,9.22-7.68a11.24,11.24,0,0,1,9,1.06c5,3.09,3.53,8.64,7.5,10.13,3.2,1.22,4.95-2.16,11.13-1.8a13.25,13.25,0,0,1,7.23,2c5.58,3.93,2.09,11.1,7.13,14.72,3.53,2.55,7.13.37,12.21,4.35a8.76,8.76,0,0,1,2.71,2.79c2.53,4.51-2.47,8-.82,13.19C193.81,76.29,197.68,77.16,197.68,81.66Z" id="Hairs"/>
<path class="cls-6" d="M170,176.34c-.84,1-1.69,1.87-2.57,2.76a58.26,58.26,0,0,1-6.29,5.46,43.63,43.63,0,0,1-9.5,5.39,35.15,35.15,0,0,1-6.61,2,28.63,28.63,0,0,1-6.06.51A31.79,31.79,0,0,1,127.33,190c-.23-.09-.45-.18-.67-.29a41.62,41.62,0,0,1-8.3-4.73,59.52,59.52,0,0,1-12.68-12.85c-.58-.78-1.13-1.58-1.69-2.38.12-.33.23-.71.34-1.06a33.22,33.22,0,0,0,.86-4.07c.6.47,1.2.94,1.82,1.38a44.9,44.9,0,0,0,5.11,3.22,5.45,5.45,0,0,1,.53.29c.2.09.42.2.62.31l.76.35.44.2a4.11,4.11,0,0,0,.38.18c.16.07.31.13.44.2s.32.11.45.18h0a1.76,1.76,0,0,1,.2.09l.53.2.67.26h0l.74.27.15,0c.16.07.33.11.51.18s.51.16.76.22.24.07.37.09l.69.2a31,31,0,0,0,4.55.8c.16,0,.31,0,.47,0l.33,0,.62,0,.56,0a4.29,4.29,0,0,1,.62,0h.56a32.12,32.12,0,0,0,9.74-1.62.07.07,0,0,0,.07,0,1.57,1.57,0,0,0,.35-.11c.67-.22,1.31-.46,2-.73a.67.67,0,0,0,.17-.07l.85-.35a1.65,1.65,0,0,1,.22-.09,45.91,45.91,0,0,0,8.26-4.88c.55-.4,1.09-.83,1.62-1.25.31,1.38.69,2.84,1.15,4.38.42,1.37.87,2.66,1.31,3.88.38.07.74.11,1.11.2s.74.13,1.09.2l1.09.2c.26,0,.53.11.8.16s.35.06.53.11c1.38.29,2.73.57,4.06.91,2.13.49,4.24,1,6.31,1.64Z" id="NeckShadow"/>
<path class="cls-4" d="M186.54,120c-.16,5.2-3.48,10.46-7.19,12.39a7.27,7.27,0,0,1-1.57.61l-.12,0a4.9,4.9,0,0,1-2,.06,5,5,0,0,1-2-.88,2.83,2.83,0,0,1-.28-.2,7.34,7.34,0,0,1-1.12-1.11c-2.68-3.23-3.78-9.29-2-14.11a14.48,14.48,0,0,1,3.24-5.06,9,9,0,0,1,4.42-2.6,5.91,5.91,0,0,1,2.37,0C184.64,110,186.67,115.7,186.54,120Z" id="RightEar"/>
<path class="cls-7" d="M186.53,120c-.15,5.2-3.46,10.46-7.19,12.39a7.07,7.07,0,0,1-1.55.6.34.34,0,0,1-.14,0,4.55,4.55,0,0,1-2,.07,4.92,4.92,0,0,1-2-.87c-.09-.06-.18-.15-.29-.22a6.48,6.48,0,0,1-1.11-1.11c-2.51-3-3.62-8.5-2.29-13.14.09-.33.2-.64.31-1a14.75,14.75,0,0,1,3.24-5.07,9,9,0,0,1,4.42-2.59,6,6,0,0,1,2.38,0,6.64,6.64,0,0,1,4.15,2.95A13.9,13.9,0,0,1,186.53,120Z" id="RightEarShadow"/>
<path class="cls-4" d="M84.61,130.92a6.5,6.5,0,0,1-1.24,1.22c0,.05-.11.07-.15.11a5.07,5.07,0,0,1-2,.87,5,5,0,0,1-2.06-.07.26.26,0,0,1-.11,0,7.5,7.5,0,0,1-1.58-.6c-3.7-1.93-7-7.19-7.19-12.39a14.23,14.23,0,0,1,1.71-7.19,7,7,0,0,1,4.62-3.7,5.47,5.47,0,0,1,2.35,0,8.66,8.66,0,0,1,4.44,2.59,14.73,14.73,0,0,1,3.24,5,11.07,11.07,0,0,1,.44,1.49C88.14,122.82,87,128,84.61,130.92Z" id="LeftEar"/>
<path class="cls-4" d="M177.85,109.17q-.14,3.28-.6,6.59a78.11,78.11,0,0,1-4,16.27c-4.66,13.1-12.48,24.71-21.91,32.3-.53.42-1.07.85-1.62,1.25a45.91,45.91,0,0,1-8.26,4.88,1.65,1.65,0,0,0-.22.09l-.85.35a.67.67,0,0,1-.17.07c-.65.27-1.29.51-2,.73a1.57,1.57,0,0,1-.35.11.07.07,0,0,1-.07,0,32.12,32.12,0,0,1-9.74,1.62h-.56a4.29,4.29,0,0,0-.62,0l-.56,0-.62,0-.33,0c-.16,0-.31,0-.47,0a31,31,0,0,1-4.55-.8l-.69-.2c-.13,0-.24-.06-.37-.09s-.51-.15-.76-.22-.35-.11-.51-.18l-.15,0-.74-.27h0l-.67-.26L116,171a1.76,1.76,0,0,0-.2-.09h0c-.13-.07-.29-.11-.45-.18s-.28-.13-.44-.2a4.11,4.11,0,0,1-.38-.18l-.44-.2-.76-.35c-.2-.11-.42-.22-.62-.31a5.45,5.45,0,0,0-.53-.29A44.9,44.9,0,0,1,107,166c-.62-.44-1.22-.91-1.82-1.38a58.92,58.92,0,0,1-8.57-8.52,77.06,77.06,0,0,1-13.25-24c-.15-.35-.26-.73-.4-1.11a78,78,0,0,1-3.42-14.65c-.17-1.2-.31-2.4-.42-3.62-.09-1-.15-2-.2-3.08,0-.18,0-.34,0-.51a67,67,0,0,1,1-14.77,72,72,0,0,1,5.88-17.93c4.24-8.9,10.37-17.27,18-23.22a39.75,39.75,0,0,1,24.46-8.88c14.92,0,27.26,8.72,35.9,20.51a74.58,74.58,0,0,1,8.63,15.49c.56,1.38,1.09,2.78,1.55,4.18a66,66,0,0,1,2.58,9.85A66.89,66.89,0,0,1,177.85,109.17Z" id="Head"/>
<path class="cls-6" d="M177.7,100.29A30.21,30.21,0,0,1,170,98.84a3.7,3.7,0,0,1-.4-.15c-7.94-2.73-7.72-7.62-14.25-9.3-7.37-1.89-10.12,3.7-18.2,1.6-6.15-1.6-6-5.2-10.95-5.58-7.39-.55-10.32,7.77-16.53,6.51-4-.82-4.42-4.66-9.33-5.75a13.73,13.73,0,0,0-9.21,1.71h-.05c2.38-2.29,3-5,6.4-5.86,4.66-1.18,6.19,3.59,12.19,3.53,7.77-.09,9.59-7,16.53-6.51,5,.38,4.8,4,10.95,5.57,8.08,2.11,10.83-3.5,18.2-1.59,6.53,1.68,6.31,6.57,14.25,9.3a28.91,28.91,0,0,0,7.24,1.55s.13,1.07.42,3.15C177.65,100.09,177.7,100.29,177.7,100.29Z" id="HairsShadow"/>
<path class="cls-5" d="M183.16,92.32a6.15,6.15,0,0,1-2.95,1.37l-.36.07a13.14,13.14,0,0,1-3,.11,28.91,28.91,0,0,1-7.24-1.55c-7.94-2.73-7.72-7.62-14.25-9.3-7.37-1.91-10.12,3.7-18.2,1.59-6.15-1.59-6-5.19-10.95-5.57-6.94-.53-8.76,6.42-16.53,6.51-6,.06-7.53-4.71-12.19-3.53-3.38.84-4,3.57-6.4,5.86a10.26,10.26,0,0,1-2.84,2,15.23,15.23,0,0,1-7.63,1.24c-2.82-.27-5.42-1.33-6.73-3.13-3.71-5.11,3.09-15.36,6-19.76,15.21-23,41.65-27.77,45.09-28.32.89-.16,2.06-.34,3.66-.52,8.08-.86,25.6-1.19,39.74,11C183.49,63.46,189.31,86.81,183.16,92.32Z" data-name="Hairs" id="Hairs-2"/>
</g>
</svg>