<?xml version="1.0" ?>
<!-- Uploaded to: SVG Repo, www.svgrepo.com, Generator: SVG Repo Mixer Tools -->
<svg width="800px" height="800px" viewBox="0 0 256 256" data-name="Layer 1" id="Layer_1" xmlns="http://www.w3.org/2000/svg">
<defs>
<style>.cls-1{fill:#84d0f7;}.cls-2{fill:#2d2d2d;}.cls-3{fill:#aa392d;}.cls-4{fill:#7c211a;}.cls-5{fill:#eab198;}.cls-6{opacity:0.2;}.cls-7{opacity:0.3;}</style>
</defs>
<g data-name="Female 2" id="Female_2">
<path class="cls-1" d="M250.22,127.78A121.65,121.65,0,0,1,212.42,216H45A102,102,0,0,1,36,207l-.82-1c-7-8.34-29.67-37.88-28.49-78.3C8.28,71.79,55.35,6,128.44,6A121.78,121.78,0,0,1,250.22,127.78Z" id="Wallpaper"/>
<path class="cls-2" d="M198.47,200.36c-5,16-37.65,24.59-69.6,24.76-31.94-.17-64.63-8.71-69.59-24.76-3-9.56,6.28-14.14,10.17-38.72C73.09,138.69,65.31,134.12,67,108c1.12-17,2.22-33.66,14-48.15,17-20.74,43.6-21.31,47-21.35,3.07,0,30.83.08,48.55,21.35,15.8,19,13.75,43.67,14.05,48.15,1.72,26.11-6.06,30.68-2.42,53.63C192.19,186.22,201.43,190.8,198.47,200.36Z" id="Hairs"/>
<path class="cls-3" d="M221.71,206.1a120.59,120.59,0,0,1-9.3,9.88,121.54,121.54,0,0,1-84,33.59c-25.91,0-47.59-9-63.44-18.77A143.63,143.63,0,0,1,45,216,102.92,102.92,0,0,1,36,207c-.24-.26-.5-.59-.83-1a113.06,113.06,0,0,1,25.27-19,132.62,132.62,0,0,1,27.69-11.4q20.06,17.76,40.14,35.49l40.51-35.49c.28.09.59.16.87.24a.66.66,0,0,0,.27.09h0a134.43,134.43,0,0,1,26.46,11A113.6,113.6,0,0,1,221.71,206.1Z" id="Sweater"/>
<path class="cls-4" d="M168.75,175.71,128.24,211.2q-20.1-17.74-40.14-35.49l1-.28.86-.24c.24-.07.52-.13.81-.22h.06c1-.26,2.24-.59,3.58-.9q16.93,14.51,33.84,29,17.13-14.53,34.24-29C165.46,174.77,167.78,175.43,168.75,175.71Z" id="Neckband"/>
<path class="cls-5" d="M162.45,174.07q-17.13,14.51-34.24,29-16.94-14.53-33.84-29c1.44-.35,3-.68,4.49-1s2.83-.55,4.17-.77a35.4,35.4,0,0,0,1.66-5.17c.24-1,.42-1.88.55-2.76a37.84,37.84,0,0,0,8.81,5.54c.51.22,1.08.49,1.76.77a31.34,31.34,0,0,0,24.5,0c.9-.37,1.69-.72,2.33-1a39.81,39.81,0,0,0,8.7-5.57c.29,1.3.64,2.65,1,4.08s.92,2.87,1.41,4.16a.09.09,0,0,1,.08,0c1.27.22,2.46.43,3.51.65h0C159.17,173.3,160.83,173.68,162.45,174.07Z" id="Neck"/>
<path class="cls-6" d="M169.91,176c-.84,1-1.69,1.87-2.57,2.74a56.89,56.89,0,0,1-6.29,5.46,42.22,42.22,0,0,1-9.49,5.37,33.45,33.45,0,0,1-6.58,1.95,29.4,29.4,0,0,1-6,.53,32,32,0,0,1-11.59-2.41l-.66-.27a41.27,41.27,0,0,1-8.29-4.73,60,60,0,0,1-12.67-12.82c-.57-.77-1.14-1.56-1.68-2.37.1-.35.21-.7.32-1.08a39,39,0,0,0,.88-4c.59.48,1.21.94,1.8,1.38a42.09,42.09,0,0,0,5.11,3.2l.52.29.64.32.74.35.44.2.37.18.46.19.46.18.2.09c.18.09.35.15.53.22s.46.15.68.24l0,0c.24.09.48.18.7.24l.18.07.52.15c.25.09.51.18.75.24a1.79,1.79,0,0,1,.35.09l.72.2A30.56,30.56,0,0,0,125,173a3.88,3.88,0,0,0,.48,0,1.83,1.83,0,0,0,.33,0,6,6,0,0,0,.61.05l.55,0h1.21a31.55,31.55,0,0,0,9.71-1.6l.06,0c.11-.05.25-.09.36-.13.65-.2,1.29-.46,1.95-.71a1.22,1.22,0,0,1,.17-.08c.29-.11.57-.24.83-.35l.22-.09a44.78,44.78,0,0,0,8.27-4.87l1.62-1.25c.29,1.36.68,2.83,1.14,4.36s.86,2.68,1.32,3.88l1.09.2,1.1.2,1.07.2.81.17a5,5,0,0,1,.53.11c1.36.29,2.72.57,4,.9q3.2.75,6.3,1.64Z" id="HairsShadow"/>
<path class="cls-5" d="M186.44,119.84c-.16,5.19-3.47,10.44-7.18,12.37a7,7,0,0,1-1.57.6l-.12,0a4.92,4.92,0,0,1-4.08-.82,1.86,1.86,0,0,1-.28-.21,6.52,6.52,0,0,1-1.12-1.11c-2.67-3.21-3.77-9.26-2-14.08a14.64,14.64,0,0,1,3.23-5.05,8.89,8.89,0,0,1,4.42-2.59,5.86,5.86,0,0,1,2.36,0C184.54,109.85,186.57,115.5,186.44,119.84Z" id="RightEar"/>
<path class="cls-7" d="M186.44,119.84c-.16,5.19-3.47,10.43-7.17,12.38a9.22,9.22,0,0,1-1.58.59s-.07,0-.13,0a5,5,0,0,1-4.08-.81l-.28-.22a6.36,6.36,0,0,1-1.1-1.1c-2.7-3.22-3.77-9.27-2-14.09a14.47,14.47,0,0,1,3.22-5.05,10.14,10.14,0,0,1,3.11-2.19,6.69,6.69,0,0,1,1.3-.39,5.69,5.69,0,0,1,2.36,0,3,3,0,0,1,.35.09C184.66,110.15,186.57,115.63,186.44,119.84Z" id="RightEarShadow"/>
<path class="cls-5" d="M84.69,130.71a6.9,6.9,0,0,1-1.4,1.31,4.92,4.92,0,0,1-4.08.82l-.12,0a7,7,0,0,1-1.57-.6c-3.71-1.93-7-7.18-7.18-12.37-.13-4.34,1.9-10,6.31-10.87,2.5-.51,4.9.71,6.78,2.6a14.5,14.5,0,0,1,3.23,5.05C88.46,121.44,87.36,127.48,84.69,130.71Z" id="LeftEar"/>
<path class="cls-5" d="M177.76,108.92V109c0,.39,0,.81,0,1.22a79.27,79.27,0,0,1-4.51,21.6c-.29.81-.6,1.62-.9,2.43-4.74,12.08-12.15,22.73-21,29.81l-1.62,1.25a44.78,44.78,0,0,1-8.27,4.87l-.22.09c-.26.11-.54.24-.83.35a1.22,1.22,0,0,0-.17.08c-.66.25-1.3.51-1.95.71-.11,0-.25.08-.36.13l-.06,0a31.55,31.55,0,0,1-9.71,1.6h-1.21l-.55,0a6,6,0,0,1-.61-.05,1.83,1.83,0,0,1-.33,0,3.88,3.88,0,0,1-.48,0,30.56,30.56,0,0,1-4.52-.79l-.72-.2a1.79,1.79,0,0,0-.35-.09c-.24-.06-.5-.15-.75-.24l-.52-.15-.18-.07c-.22-.06-.46-.15-.7-.24l0,0c-.22-.09-.44-.16-.68-.24s-.35-.13-.53-.22l-.2-.09-.46-.18-.46-.19-.37-.18-.44-.2-.74-.35-.64-.32-.52-.29a42.09,42.09,0,0,1-5.11-3.2c-.59-.44-1.21-.9-1.8-1.38-.77-.62-1.51-1.25-2.26-1.91s-1.47-1.34-2.17-2.06-1.44-1.45-2.1-2.19-1.38-1.54-2-2.32a81.32,81.32,0,0,1-17.43-43.3c-.11-1-.17-2.06-.22-3.09a70.34,70.34,0,0,1,.33-10.87c.18-1.47.37-2.92.64-4.36.33-1.76.72-3.53,1.23-5.33a72.25,72.25,0,0,1,4.64-12.58c4.23-8.88,10.35-17.23,18-23.17,7-5.42,15.19-8.84,24.42-8.86,14.88-.07,27.2,8.68,35.82,20.45a72.48,72.48,0,0,1,8.63,15.48c.57,1.38,1.08,2.76,1.56,4.16a69.43,69.43,0,0,1,2.56,9.85c.25,1.4.46,2.82.62,4.25A66.94,66.94,0,0,1,177.76,108.92Z" id="Head"/>
<path class="cls-6" d="M177.82,109c-.09,1.43-.2,2.59-.33,3.82-.2,1.93-.3,2.87-.35,2.94-1.2,2-10.78.3-24.77-7.17-10.89-5.83-12.08-8.13-22.64-14.56C114,84.44,106.12,79.59,97.42,81,83.71,83.19,76.59,98.09,74,97.22c2.94.63,7.56-14.82,20.19-19s27.69,4.85,43.16,14.07c4.87,2.92,11.25,7.3,21.81,12.13,14.58,6.64,17.54,5.26,18.64,4.56C177.8,109,177.8,109,177.82,109Z" data-name="HairsShadow" id="HairsShadow-2"/>
<path class="cls-2" d="M177.82,109s0,0,0,0c-1.1.7-4.06,2.08-18.64-4.56-10.56-4.83-16.94-9.21-21.81-12.13-15.47-9.22-30.51-18.21-43.16-14.07S76.92,97.85,74,97.22l-.17-.07c-2.17-1-.77-10.37,2.43-18.44,4.82-12.12,16.9-29.3,38.3-34.89,4.55-1.19,22.14-5.51,39.28,4.36,16.94,9.75,21.94,26.24,24.24,33.93C178.87,84.81,184.73,104.34,177.82,109Z" data-name="Hairs" id="Hairs-2"/>
</g>
</svg>